<?xml version="1.0" encoding="UTF-8" standalone="no"?>
<!-- Created with Inkscape (http://www.inkscape.org/) -->

<svg
   version="1.1"
   id="svg1"
   width="1024"
   height="1024"
   viewBox="0 0 1024 1024"
   xmlns="http://www.w3.org/2000/svg"
   xmlns:svg="http://www.w3.org/2000/svg">
  <defs
     id="defs1" />
  <g
     id="g530"
     transform="matrix(1.5696208,0,0,1.5696208,-311.89609,-313.13793)">
    <path
       style="fill:#e42b22;fill-opacity:1;stroke-width:1.02503"
       d="m 499.69875,851.57187 c -8.56401,-0.85306 -21.45098,-2.50098 -28.70075,-3.67011 -4.84791,-0.7818 -27.98658,-6.31677 -35.70748,-8.54155 -17.9789,-5.18062 -47.50349,-17.71025 -65.65848,-27.86411 C 262.1841,751.40178 198.47494,638.09321 202.27721,513.85076 c 1.09556,-35.79826 5.46482,-60.64491 16.76327,-95.3275 12.07817,-37.07606 31.16063,-71.84433 57.1022,-104.04022 8.88736,-11.03005 32.20648,-34.03262 44.17637,-43.5767 5.63765,-4.49512 10.4809,-8.43312 10.76278,-8.75111 1.75808,-1.98326 24.16308,-16.3832 35.45058,-22.78445 29.70304,-16.8449 70.04607,-30.71747 104.9781,-36.09835 1.97318,-0.30395 4.74075,-0.76021 6.15017,-1.01393 1.40941,-0.2537 5.59141,-0.74492 9.29333,-1.09156 35.59528,-3.33318 64.67413,-2.49066 94.71811,2.74431 4.36332,0.76029 6.22778,0.74742 6.49183,-0.0448 0.51694,-1.55078 2.24968,-1.3938 2.24968,0.20382 0,0.83087 4.32901,2.34725 11.75575,4.11783 33.99471,8.10451 72.45409,24.76851 101.50972,43.98298 45.70852,30.22702 85.57976,74.42892 108.44686,120.22593 24.00407,48.07407 35.58561,97.05488 35.56065,150.39354 -0.0129,27.64168 -1.87081,45.78952 -7.32235,71.52478 -10.1552,47.94013 -33.59975,97.41867 -64.83979,136.84109 -10.60638,13.38439 -37.22067,39.94381 -50.83232,50.72751 -46.61074,36.92691 -102.26125,60.50286 -160.92922,68.17654 -15.09045,1.9738 -50.93278,2.81938 -64.06418,1.51136 z m 36.11085,-86.6963 c -0.34061,-0.34061 -1.2247,-0.37702 -1.96464,-0.0809 -0.81769,0.32721 -0.57481,0.5701 0.61929,0.61928 1.08054,0.0445 1.68596,-0.19775 1.34535,-0.53836 z m 28.46585,-11.29847 c 9.584,-4.88036 25.49754,-13.12778 35.36342,-18.3276 9.86589,-5.1998 30.39205,-15.83379 45.6137,-23.63107 15.22165,-7.79726 35.05592,-18.01514 44.07616,-22.70638 9.02023,-4.69124 25.16441,-12.99988 35.87594,-18.46363 22.43525,-11.4438 27.6854,-15.76112 33.40843,-27.47248 3.29926,-6.75147 3.49253,-7.74383 3.49253,-17.93253 0,-10.08593 -0.215,-11.22221 -3.31455,-17.51715 -6.80109,-13.81247 -19.72155,-22.47338 -34.70509,-23.26371 -11.1906,-0.59025 -15.91313,0.93674 -36.874,11.92285 -9.54732,5.004 -30.96601,16.14114 -47.59707,24.74921 -16.63106,8.60807 -35.77344,18.54212 -42.53861,22.07569 -6.76518,3.53355 -24.98503,12.98413 -40.48856,21.00125 -41.73974,21.58431 -44.5454,23.18732 -49.82631,28.46825 -5.76617,5.76615 -10.3367,15.00915 -11.74453,23.75092 -2.70169,16.77601 6.77028,34.81531 22.36208,42.58836 7.23886,3.60882 12.61913,4.61677 21.7833,4.08092 7.25428,-0.42417 8.67012,-0.94978 25.11316,-9.3229 z m -98.82788,-87.8883 c 52.94544,-13.4333 91.96787,-54.63846 104.02325,-109.84178 2.73032,-12.50252 2.97823,-40.02888 0.48247,-53.56828 C 559.5583,445.88665 515.3969,401.40391 458.69768,390.2136 c -10.93261,-2.15769 -43.81474,-1.88571 -54.52631,0.451 -26.63102,5.80953 -50.26039,17.91317 -69.11224,35.40127 -4.29577,3.98503 -8.055,7.00101 -8.35382,6.70218 -0.29883,-0.29882 -0.89142,0.0199 -1.31686,0.70828 -0.49429,0.79979 -0.34634,0.98759 0.40987,0.52022 2.20439,-1.36239 1.1992,1.06754 -1.47568,3.56729 -1.4625,1.36674 -5.42135,6.60827 -8.79747,11.64784 -16.77401,25.03878 -23.91274,49.0439 -23.79499,80.01449 0.0673,17.72581 1.87946,29.20301 7.1376,45.20784 14.99014,45.62729 55.80993,81.77916 104.13237,92.2244 17.59919,3.80419 45.3292,3.37363 62.44742,-0.96961 z m -81.06434,-2.12362 c 0,-0.24861 -0.46126,-0.73709 -1.02503,-1.08552 -0.56376,-0.34843 -1.02502,-0.14502 -1.02502,0.45202 0,0.59703 0.46126,1.08552 1.02502,1.08552 0.56377,0 1.02503,-0.20341 1.02503,-0.45202 z M 295.00793,489.223 c -0.3156,-0.3156 -0.88875,0.25329 -1.27368,1.26419 -0.55626,1.46087 -0.43853,1.5786 0.57381,0.57381 0.70053,-0.69532 1.01546,-1.52241 0.69987,-1.838 z m 380.44915,-40.44658 c 22.27277,-7.59355 36.91501,-21.95543 43.3842,-42.55348 11.33692,-36.09702 -10.19445,-74.27775 -47.45052,-84.14218 -4.25268,-1.12599 -10.55575,-1.76978 -17.42546,-1.7798 -8.96182,-0.0131 -12.17173,0.44775 -19.18288,2.75393 -24.70298,8.12562 -40.92875,28.61732 -44.14288,55.74858 -1.68338,14.20985 2.48305,31.61869 10.43413,43.59749 4.2879,6.46001 13.57771,15.58925 19.96429,19.61925 5.09035,3.21207 16.06299,7.55297 22.16456,8.76856 7.67463,1.52898 25.04638,0.44517 32.25456,-2.01235 z M 465.03553,388.09278 c -0.32721,-0.8177 -0.5701,-0.57482 -0.61928,0.61929 -0.0445,1.08054 0.19776,1.68595 0.53837,1.34535 0.3406,-0.34061 0.37701,-1.22471 0.0809,-1.96464 z m 201.23009,-68.88746 c 0,-0.22157 -0.71585,-0.67754 -1.59078,-1.01329 -0.91219,-0.35003 -1.32364,-0.1782 -0.96453,0.40285 0.60196,0.97399 2.55531,1.44062 2.55531,0.61044 z"
       id="path167" />
    <path
       style="opacity:1;fill:#37be82;fill-opacity:1;stroke:#37be82;stroke-width:0.4;stroke-dasharray:none;stroke-opacity:1;paint-order:stroke fill markers"
       d="m 646.65829,451.15836 c -0.59464,-0.0468 -1.96737,-0.24652 -3.0505,-0.44389 -6.28164,-1.14461 -18.42055,-6.05166 -23.57555,-9.53022 -2.90309,-1.95899 -7.13595,-5.6566 -10.97765,-9.58953 -5.90796,-6.04825 -8.47359,-9.58219 -11.50735,-15.85037 -9.67178,-19.98322 -9.43169,-42.02317 0.67115,-61.6107 8.34879,-16.18675 23.09499,-27.74164 41.23212,-32.30881 4.54425,-1.14431 6.45139,-1.31994 14.1753,-1.30542 9.88653,0.0186 14.65967,0.6205 20.90258,2.6359 4.16255,1.3438 7.2056,2.6052 10.97776,4.5505 19.60749,10.11152 33.02316,29.32366 35.76879,51.22331 0.46122,3.6788 0.51945,10.90859 0.11674,14.49571 -1.66098,14.79532 -8.08419,28.48217 -18.03785,38.43582 -6.61853,6.61853 -14.4909,11.5947 -24.58477,15.54017 -5.35046,2.09137 -10.21542,3.08002 -18.06918,3.67198 -3.1122,0.23458 -11.49767,0.28567 -14.04159,0.0856 z"
       id="path32" />
    <path
       style="opacity:1;fill:#ffd631;fill-opacity:1;stroke:#ffd631;stroke-width:1.621;stroke-dasharray:none;stroke-opacity:1;paint-order:stroke fill markers"
       d="m 523.16608,760.64969 c -19.00391,-6.78836 -31.25962,-27.33392 -27.30491,-45.77412 1.74088,-8.1174 6.31339,-16.70154 11.7878,-22.12963 5.67943,-5.63138 8.18027,-6.99862 99.30863,-54.29337 101.51648,-52.68609 99.35928,-51.6213 107.51116,-53.067 17.70029,-3.13904 35.18673,5.74974 43.42794,22.0755 3.05123,6.04446 3.28286,7.28047 3.29889,17.60458 0.0159,10.26602 -0.22439,11.5945 -3.1856,17.60958 -3.72603,7.56864 -8.76066,13.08455 -16.408,17.9765 -2.99886,1.91834 -28.13024,15.17989 -55.84752,29.47011 -27.71727,14.29022 -68.00459,35.13564 -89.52738,46.32316 -49.41419,25.68546 -49.40929,25.68338 -60.50535,25.62456 -4.79052,-0.0254 -10.44056,-0.66434 -12.55566,-1.41987 z"
       id="path33" />
    <path
       style="opacity:1;fill:#339eec;fill-opacity:1;stroke:#339eec;stroke-width:1.5;stroke-dasharray:none;stroke-opacity:1;paint-order:stroke fill markers"
       d="m 418.42646,668.21051 c -53.77547,-4.51661 -102.80722,-43.70567 -119.40768,-95.43767 -4.4895,-13.99061 -5.78952,-21.48066 -6.47621,-37.31261 -1.55278,-35.79992 7.26003,-64.61766 28.28596,-92.49462 3.44441,-4.56672 6.28715,-8.62904 6.31721,-9.02738 0.0771,-1.02167 17.35119,-15.41851 24.37409,-20.31422 12.7866,-8.91364 30.54783,-16.7949 47.77359,-21.19879 10.13246,-2.59043 11.76536,-2.7277 32.9514,-2.77003 23.46365,-0.0469 26.82021,0.35673 41.67383,5.01106 35.732,11.1965 69.14959,40.39962 84.65768,73.98106 4.6085,9.9793 9.17362,24.10791 10.94105,33.86152 1.68923,9.32209 1.68263,42.79783 -0.01,50.88084 -4.07865,19.47675 -13.6641,41.84989 -24.49497,57.17305 -3.38805,4.7933 -10.30654,12.86155 -15.37442,17.92944 -29.53092,29.5309 -68.17643,43.33287 -111.2115,39.71835 z"
       id="path34" />
  </g>
</svg>
