<?xml version="1.0" encoding="UTF-8" standalone="no"?>
<!-- Created with Inkscape (http://www.inkscape.org/) -->

<svg
   version="1.1"
   id="svg1"
   width="1024"
   height="1024"
   viewBox="0 0 1024 1024"
   xmlns="http://www.w3.org/2000/svg"
   xmlns:svg="http://www.w3.org/2000/svg">
  <defs
     id="defs1" />
  <path
     style="fill:#000000;fill-opacity:1;stroke-width:1.60891"
     d="m 472.44146,1023.507 c -13.44225,-1.339 -33.6699,-3.9256 -45.04929,-5.7607 -7.60938,-1.2271 -43.92832,-9.9149 -56.04721,-13.407 C 343.12491,996.20771 296.7825,976.54094 268.28605,960.60323 99.633527,866.27793 -0.3656959,688.42644 5.6024262,493.41291 7.3220399,437.22322 14.180121,398.2234 31.914403,343.78488 50.87255,285.58953 80.824776,231.01653 121.5432,180.48119 c 13.94979,-17.313 50.55197,-53.41831 69.34015,-68.39889 8.84898,-7.05564 16.45104,-13.236804 16.89349,-13.735928 2.75952,-3.112966 37.92687,-25.715412 55.64396,-35.762947 46.62251,-26.440105 109.94577,-48.21478 164.77581,-56.6607208 3.09715,-0.4770862 7.44118,-1.1932414 9.65344,-1.5914856 2.21224,-0.3982128 8.77639,-1.1692419 14.587,-1.7133353 55.87109,-5.2318287 101.51386,-3.9093917 148.67152,4.3075261 6.84876,1.193367 9.77525,1.1731659 10.18971,-0.070319 0.8114,-2.4341365 3.53114,-2.1877374 3.53114,0.3199202 0,1.3041508 6.79491,3.6842924 18.45207,6.4634314 53.35881,12.721008 113.72545,38.877169 159.33177,69.0366 71.74505,47.444958 134.32777,116.825178 170.22045,188.709118 37.67729,75.45806 55.85589,152.33936 55.81669,236.06083 -0.02,43.38696 -2.9364,71.87218 -11.4933,112.26678 -15.93978,75.24783 -52.73883,152.91037 -101.77385,214.78862 -16.648,21.00842 -58.42234,62.69664 -79.78747,79.62296 -73.16118,57.96125 -160.51138,94.96655 -252.59785,107.01135 -23.68628,3.0981 -79.94515,4.4253 -100.55647,2.3722 z M 529.1218,887.42667 c -0.53463,-0.53462 -1.92231,-0.59177 -3.08374,-0.12698 -1.28346,0.5136 -0.90223,0.89484 0.97205,0.97204 1.69604,0.0698 2.64632,-0.3104 2.11169,-0.84502 z m 44.68059,-17.73431 c 15.04325,-7.66031 40.02147,-20.60564 55.50716,-28.76738 15.48571,-8.16172 47.704,-24.85305 71.59622,-37.09182 23.89221,-12.23874 55.0245,-28.27694 69.18285,-35.64041 14.15834,-7.36346 39.49858,-20.40488 56.31162,-28.98089 35.21484,-17.96243 43.45558,-24.73899 52.43857,-43.12138 5.17859,-10.59725 5.48195,-12.15488 5.48195,-28.14727 0,-15.83109 -0.33747,-17.61462 -5.20259,-27.49529 -10.67513,-21.68034 -30.95535,-35.27468 -54.47383,-36.5152 -17.565,-0.92647 -24.97758,1.47033 -57.8782,18.71435 -14.98567,7.85439 -48.60489,25.33547 -74.70935,38.84688 -26.10446,13.51141 -56.15073,29.1041 -66.76948,34.65046 -10.61877,5.54634 -39.21703,20.38016 -63.55169,32.964 -65.51556,33.87918 -69.91939,36.3953 -78.20841,44.68436 -9.0507,9.05067 -16.2247,23.55867 -18.43446,37.27994 -4.24063,26.33197 10.62677,54.64683 35.09998,66.84757 11.36227,5.66448 19.80725,7.24658 34.19152,6.4055 11.38647,-0.66579 13.60881,-1.4908 39.41814,-14.63342 z M 418.6801,731.74106 c 83.10426,-21.08519 144.35468,-85.76167 163.27705,-172.40995 4.28557,-19.62421 4.6747,-62.83016 0.7573,-84.08188 C 566.39826,386.73503 497.0816,316.914 408.08533,299.34945 c -17.16005,-3.38675 -68.77253,-2.95985 -85.58563,0.7079 -41.8006,9.11876 -78.88975,28.11689 -108.48001,55.56657 -6.74273,6.25499 -12.6433,10.98893 -13.11233,10.51988 -0.46905,-0.46903 -1.39919,0.0312 -2.06697,1.11173 -0.77585,1.25537 -0.54362,1.55015 0.64334,0.81655 3.46006,-2.13843 1.88229,1.67563 -2.31626,5.59929 -2.29557,2.14527 -8.50946,10.37248 -13.80869,18.2827 -26.32884,39.30139 -37.53393,76.98032 -37.34911,125.5924 0.10563,27.8228 2.95004,45.83766 11.20332,70.95917 23.52884,71.61754 87.60043,128.36227 163.44834,144.75734 27.62405,5.97113 71.14965,5.29532 98.01877,-1.52192 z m -127.24028,-3.33328 c 0,-0.39022 -0.724,-1.15695 -1.60891,-1.70386 -0.88488,-0.5469 -1.60889,-0.22762 -1.60889,0.7095 0,0.93711 0.72401,1.70386 1.60889,1.70386 0.88491,0 1.60891,-0.31928 1.60891,-0.7095 z M 151.15449,454.75667 c -0.49537,-0.49538 -1.395,0.39757 -1.99919,1.9843 -0.87312,2.29301 -0.68833,2.4778 0.90066,0.90066 1.09957,-1.09139 1.59389,-2.38961 1.09853,-2.88496 z m 597.1609,-63.4858 c 34.95981,-11.91899 57.94257,-34.4617 68.09674,-66.79282 17.79467,-56.65864 -16.00142,-116.58791 -74.47932,-132.07132 -6.67509,-1.76738 -16.56852,-2.77788 -27.35136,-2.79361 -14.06666,-0.0206 -19.105,0.7028 -30.10985,4.32262 -38.77431,12.75415 -64.24262,44.91835 -69.28758,87.50414 -2.64227,22.30407 3.89744,49.62935 16.37762,68.43152 6.73038,10.13977 21.31186,24.46921 31.33637,30.79479 7.98992,5.04173 25.2128,11.85529 34.78995,13.76331 12.04626,2.39992 39.31332,0.69875 50.62743,-3.15863 z m -330.28204,-95.2503 c -0.51359,-1.28348 -0.89484,-0.90225 -0.97203,0.97205 -0.0699,1.69604 0.3104,2.6463 0.84503,2.11169 0.53462,-0.53463 0.59177,-1.92233 0.12698,-3.08374 z M 733.88829,187.89338 c 0,-0.34778 -1.12362,-1.06348 -2.49693,-1.59048 -1.43179,-0.54942 -2.07761,-0.27971 -1.51394,0.63232 0.94485,1.5288 4.01087,2.26123 4.01087,0.95816 z"
     id="path167" />
</svg>
